<svg xmlns="http://www.w3.org/2000/svg"  viewBox="0 0 100 100" width="100px" height="100px"><path fill="#88ae45" d="M13,27c-1.105,0-2,0.895-2,2s0.895,2,2,2s2-0.895,2-2S14.105,27,13,27z"/><circle cx="77" cy="13" r="1" fill="#f1bc19"/><circle cx="50" cy="50" r="37" fill="#e6edb7"/><circle cx="83" cy="15" r="4" fill="#f1bc19"/><circle cx="87" cy="24" r="2" fill="#88ae45"/><circle cx="81" cy="76" r="2" fill="#fbcd59"/><circle cx="15" cy="63" r="4" fill="#fbcd59"/><circle cx="25" cy="87" r="2" fill="#88ae45"/><circle cx="18.375" cy="54.5" r="2.5" fill="#fff"/><path fill="#fbcd59" d="M61,61h11.326V34.948c0-4.076-3.316-7.392-7.393-7.392H35.067c-4.077,0-7.393,3.316-7.393,7.392	v29.867c0,4.076,3.316,7.392,7.393,7.392H61V61z"/><circle cx="77.5" cy="30.5" r="1.5" fill="#fff"/><path fill="none" stroke="#472b29" stroke-linecap="round" stroke-linejoin="round" d="M30.5,53.667V35.333	c0-2.669,2.164-4.833,4.833-4.833h8"/><path fill="none" stroke="#472b29" stroke-linecap="round" stroke-linejoin="round" d="M43.583,69.5h-8.25	c-2.669,0-4.833-2.164-4.833-4.833v-4.333"/><path fill="none" stroke="#472b29" stroke-linecap="round" stroke-linejoin="round" d="M69.5,46.583v14.13l-8.745,8.786H47.917"/><path fill="none" stroke="#472b29" stroke-linecap="round" stroke-linejoin="round" d="M61.917,30.5h2.75	c2.669,0,4.833,2.164,4.833,4.833v6.333"/><line x1="48.25" x2="57.5" y1="30.5" y2="30.5" fill="none" stroke="#472b29" stroke-linecap="round" stroke-linejoin="round"/><polygon fill="#f5e690" points="72.062,60.713 60.755,60.713 60.755,72.096"/><path fill="#472b29" d="M60.055,72.096V60.713c0-0.387,0.313-0.7,0.7-0.7h11.307c0.387,0,0.7,0.313,0.7,0.7	s-0.313,0.7-0.7,0.7H61.455v10.683c0,0.387-0.313,0.7-0.7,0.7S60.055,72.483,60.055,72.096z"/><path fill="#472b29" d="M60.653,71.6H35c-3.639,0-6.6-2.961-6.6-6.6V35c0-3.639,2.961-6.6,6.6-6.6h30	c3.639,0,6.6,2.961,6.6,6.6v25.713H73V35c0-4.418-3.582-8-8-8H35c-4.418,0-8,3.582-8,8v30c0,4.418,3.582,8,8,8h25.653V71.6z"/><line x1="60.698" x2="72.302" y1="72.302" y2="60.698" fill="none" stroke="#472b29" stroke-linecap="round" stroke-linejoin="round" stroke-width="1.4"/><path fill="#fff" d="M50,35.251c-5.417,0-9.75,4.333-9.75,9.75c0,3.792,2.058,7.15,5.417,8.775v8.808h2.167v2.167h4.333 v-2.167h2.167v-8.808c3.358-1.733,5.417-4.983,5.417-8.775C59.75,39.584,55.417,35.251,50,35.251z M47.833,60.419v-2.417h4.333 v2.417H47.833z M52.817,51.934l-0.65,0.325v3.826h-4.333v-3.826l-0.65-0.325c-2.925-1.192-4.767-3.9-4.767-7.042 c0-4.225,3.358-7.583,7.583-7.583s7.583,3.358,7.583,7.583C57.583,48.034,55.742,50.743,52.817,51.934z"/><path fill="#472b29" d="M52.167,65.002h-4.333c-0.138,0-0.25-0.112-0.25-0.25v-1.917h-1.917c-0.138,0-0.25-0.112-0.25-0.25 v-8.653C42.071,52.247,40,48.84,40,45.001c0-5.514,4.486-10,10-10s10,4.486,10,10c0,3.789-2.022,7.115-5.417,8.926v8.658 c0,0.138-0.112,0.25-0.25,0.25h-1.917v1.917C52.417,64.89,52.305,65.002,52.167,65.002z M48.083,64.502h3.833v-1.917 c0-0.138,0.112-0.25,0.25-0.25h1.917v-8.559c0-0.094,0.052-0.179,0.135-0.222c3.308-1.706,5.282-4.904,5.282-8.552 c0-5.238-4.262-9.5-9.5-9.5s-9.5,4.262-9.5,9.5c0,3.699,2.021,6.976,5.275,8.55c0.086,0.042,0.141,0.129,0.141,0.225v8.56h1.917 c0.138,0,0.25,0.112,0.25,0.25V64.502z M52.167,60.669h-4.333c-0.138,0-0.25-0.112-0.25-0.25v-2.417c0-0.138,0.112-0.25,0.25-0.25 h4.333c0.138,0,0.25,0.112,0.25,0.25v2.417C52.417,60.557,52.305,60.669,52.167,60.669z M48.083,60.169h3.833v-1.917h-3.833V60.169 z M52.167,56.335h-4.333c-0.138,0-0.25-0.112-0.25-0.25v-3.672l-0.512-0.256c-3.019-1.229-4.905-4.016-4.905-7.265 c0-4.393,3.441-7.833,7.833-7.833s7.833,3.441,7.833,7.833c0,3.25-1.886,6.036-4.922,7.273l-0.495,0.248v3.672 C52.417,56.224,52.305,56.335,52.167,56.335z M48.083,55.835h3.833v-3.576c0-0.095,0.054-0.181,0.138-0.224l0.65-0.325 c2.862-1.167,4.628-3.776,4.628-6.818c0-4.112-3.221-7.333-7.333-7.333s-7.333,3.221-7.333,7.333c0,3.042,1.767,5.651,4.611,6.81 l0.668,0.333c0.084,0.042,0.138,0.129,0.138,0.224V55.835z"/></svg>